# xmcd CD database file
#
# Track frame offsets:
#	150
#	16645
#	34042
#	51827
#	65185
#	81745
#	103457
#	120150
#	137312
#	154340
#	171677
#	187347
#	205172
#	227247
#	250075
#	272735
#
# Disc length: 3820 seconds
#
# Revision: 0
# Processed by: cddbd v1.5.1PL0 Copyright (c) Steve Scherf et al.
# Submitted via: CDex 1.51
#
DISCID=ec0eea10
DTITLE=麻倉未稀 - 麻倉未稀ベスト
DYEAR=2003
DGENRE=Pop
TTITLE0=ミスティ・トワイライト
TTITLE1=黄昏ダンシング
TTITLE2=ロマンスは熱いうちに ~The City Of Romance~
TTITLE3=テル・ハー・ノー
TTITLE4=運命のいたずら
TTITLE5=ヒーロー
TTITLE6=Runaway
TTITLE7=Eternal Flame
TTITLE8=パワー・オブ・ラブ
TTITLE9=ファー・フロム・オーバー
TTITLE10=ザナドゥー
TTITLE11=ホワット・ア・フィーリング ~フラッシュダンス
TTITLE12=愛はウイングス
TTITLE13=ネバー・エンディング・ストーリー
TTITLE14=ビリー・ジーン
TTITLE15=Amazing Grace
EXTD=YEAR: 2003
EXTT0=
EXTT1=
EXTT2=
EXTT3=
EXTT4=
EXTT5=
EXTT6=
EXTT7=
EXTT8=
EXTT9=
EXTT10=
EXTT11=
EXTT12=
EXTT13=
EXTT14=
EXTT15=
PLAYORDER=
